/* XPM */
static char *_427584dcc3c4e81aa3bc113df7bd6ae[] = {
/* columns rows colors chars-per-pixel */
"32 32 149 2 ",
"   c #010000",
".  c #0B0404",
"X  c #0B0C0C",
"o  c #120505",
"O  c #1C0606",
"+  c #140808",
"@  c #1A0A0A",
"#  c #131313",
"$  c #1B1B1B",
"%  c #230C0C",
"&  c #2F0E0E",
"*  c #340C0C",
"=  c #380D0D",
"-  c #2B1111",
";  c #2B1B1B",
":  c #331313",
">  c #3D1414",
",  c #3C1A1A",
"<  c #242424",
"1  c #2B2424",
"2  c #2B2B2B",
"3  c #312626",
"4  c #333333",
"5  c #3D3434",
"6  c #3D3C3C",
"7  c #441313",
"8  c #4B1616",
"9  c #451A1A",
"0  c #4A1A1A",
"q  c #531212",
"w  c #5C1414",
"e  c #531F1F",
"r  c #5C1C1C",
"t  c #651717",
"y  c #681616",
"u  c #641B1B",
"i  c #681818",
"p  c #701A1A",
"a  c #7C1C1C",
"s  c #412B2B",
"d  c #4C2C2C",
"f  c #522323",
"g  c #5F2323",
"h  c #542828",
"j  c #5E2D2D",
"k  c #413232",
"l  c #4F3434",
"z  c #4A3B3B",
"x  c #513D3D",
"c  c #593C3C",
"v  c #632121",
"b  c #692727",
"n  c #662929",
"m  c #732222",
"M  c #7C2626",
"N  c #7D2929",
"B  c #7D3434",
"V  c #434343",
"C  c #4E4141",
"Z  c #4C4C4C",
"A  c #534A4A",
"S  c #4F5151",
"D  c #535454",
"F  c #5B5B5B",
"G  c #614747",
"H  c #625A5A",
"J  c #5F6161",
"K  c #646464",
"L  c #686565",
"P  c #676969",
"I  c #6C6D6D",
"U  c #747474",
"Y  c #777979",
"T  c #7B7C7C",
"R  c #8D1F1F",
"E  c #822626",
"W  c #8B2525",
"Q  c #842929",
"!  c #8C2A2A",
"~  c #912222",
"^  c #9E2424",
"/  c #932A2A",
"(  c #9C2A2A",
")  c #803535",
"_  c #8F3131",
"`  c #993A3A",
"'  c #A32525",
"]  c #AA2626",
"[  c #AF2828",
"{  c #B62B2B",
"}  c #BC2A2A",
"|  c #A13030",
" . c #AE3232",
".. c #A43939",
"X. c #BA3434",
"o. c #BB3E3E",
"O. c #C52D2D",
"+. c #CD2E2E",
"@. c #C43333",
"#. c #CA3737",
"$. c #C43B3B",
"%. c #D43232",
"&. c #DC3232",
"*. c #D23939",
"=. c #DD3B3B",
"-. c #E43333",
";. c #ED3737",
":. c #E43A3A",
">. c #EB3C3C",
",. c #F13737",
"<. c #F43939",
"1. c #FD3D3D",
"2. c #BB4545",
"3. c #B14949",
"4. c #B35050",
"5. c #BD5454",
"6. c #CD4242",
"7. c #C74E4E",
"8. c #CE4C4C",
"9. c #D14444",
"0. c #DD4949",
"q. c #C75656",
"w. c #DB5B5B",
"e. c #E64141",
"r. c #E74D4D",
"t. c #EC4D4D",
"y. c #F24444",
"u. c #FF4343",
"i. c #F04949",
"p. c #FE4B4B",
"a. c #EE5353",
"s. c #E25A5A",
"d. c #F35151",
"f. c #FF5353",
"g. c #F45A5A",
"h. c #FF5B5B",
"j. c #FF6262",
"k. c #7F8181",
"l. c #838383",
"z. c #878888",
"x. c #8C8D8D",
"c. c #8E9090",
"v. c #939393",
"b. c #9B9B9B",
"n. c #9FA2A2",
"m. c #A4A5A5",
"M. c #AEAFAF",
"N. c #B6B6B6",
"B. c None",
/* pixels */
"B.B.B.B.B.B.B.B.B.B.B.B.B.  X . X .   B.B.B.B.B.B.B.B.B.B.B.B.B.",
"B.B.B.B.B.B.B.B.B.B.. < Z < T V P Y D < 2   B.B.B.B.B.B.B.B.B.B.",
"B.B.B.B.B.B.B.B.# 2 D T v.T m.I x.m.k.l.x.. # $ B.B.B.B.B.B.B.B.",
"B.B.B.B.B.B.B.2 Z I l.H P z d h h d k F I $ U K $ B.B.B.B.B.B.B.",
"B.B.B.B.B.# 4 c.c.Z A r ^ +.-.;.,.-.+.^ r ; I S P S X B.B.B.B.B.",
"B.B.B.B.. F T T Z v O.<.1.1.u.1.u.u.u.1.1.O.b 6 Y T 6 X B.B.B.B.",
"B.B.B.$ Z P Y z ~ <.1.u.u.u.u.p.u.u.p.>.&.1.<.~ C U l.V . B.B.B.",
"B.B.B.< T S ; ' <.<.:.:.*.$.X. .( / W u & t { <.' k k.b.4 B.B.B.",
"B.B.    X 1 ~ 1.:.X./ W M M M M N N Q N & @ ( <.1.R 5 b.6   B.B.",
"B.B.      w <.1.u.u.i.p.p.d.f.d.d.f.f.p.9.= E u.1.<.u $     B.B.",
"B.      O O.u.u.u.p.p.f.f.g._ 9 0 ..8.d.f.m @ #.u.1.O.O       B.",
"B.      w 1.1.u.p.p.f.f.f.7.+     . N a.0.6.& E u.u.1.w       B.",
"B.      ] 1.u.u.p.f.f.h.g.e         > 2.f g % r u.u.1.]       B.",
"      O %.1.u.p.p.f.h.h.` .         . ` 9     8 i.u.1.%.O       ",
"      * ,.1.u.p.p.f.h.8.%   - -       : ,     E p.u.1.;.*       ",
". F F 7 <.u.u.p.f.f.h.2.+ f w.5.+             ! p.u.u.,.7 S K X ",
". l.x.8 <.1.u.p.f.f.h.g.7.) q.4..             M p.u.u.<.7 T c.# ",
"  # X = ;.u.u.p.f.f.h.h.j.w.B ,               r X.y.1.;.= X #   ",
"      O %.1.u.p.p.f.h.h.j.s.3.:                 % *.1.%.O       ",
"B.    . [ 1.u.p.p.f.f.h.2.9 : .                 o @.u.[ .     B.",
"B.      y 1.1.u.p.p.f.a.8 f e                     = ^ t       B.",
"B.      O %.1.u.u.p.o.r % 8 7 : @                   q O       B.",
"B.B.      y 1.<.*.E r M 8 0.t.r.o.>               * q $     B.B.",
"B.B.      3 / a 7 W e.e.! i.f.f.f.i.| 8 .       O w 5 x.S   B.B.",
"B.B.B.  < l.C R %.1.u.u.u.d.p.p.p.p.p.i.X.w o O w s c.m.F B.B.B.",
"B.B.B.  Z D U G ' 1.1.u.u.u.u.u.u.u.u.u.u.1.[ u x U x.F # B.B.B.",
"B.B.B.B.  S U k.z M %.1.1.1.1.u.u.1.1.1.1.%.N k T T F $ B.B.B.B.",
"B.B.B.B.B.< J l.M.K l p { -.<.<.1.,.&.} p - I D P I 1 B.B.B.B.B.",
"B.B.B.B.B.B.  V T F P P H c f n g j d Z K X U I 4 X B.B.B.B.B.B.",
"B.B.B.B.B.B.B.B.$ Z l.l.c.T T T I n.x.U N.6 # 4 B.B.B.B.B.B.B.B.",
"B.B.B.B.B.B.B.B.B.B.$ 1 U P x.l.I v.k.V V < B.B.B.B.B.B.B.B.B.B.",
"B.B.B.B.B.B.B.B.B.B.B.B.B.X $ $ $ $ # B.B.B.B.B.B.B.B.B.B.B.B.B."
};
