/* XPM */
static char *_8b2be6d72a34b5a98c3942dc8f8d900[] = {
/* columns rows colors chars-per-pixel */
"16 16 164 2 ",
"   c black",
".  c #010101",
"X  c #020000",
"o  c #010303",
"O  c #0C0303",
"+  c #0A0404",
"@  c #0B0404",
"#  c #0B0505",
"$  c #0C0606",
"%  c #0F0606",
"&  c #130303",
"*  c #150404",
"=  c #161818",
"-  c #1C1D1D",
";  c #1D1D1D",
":  c #200808",
">  c #270A0A",
",  c #371616",
"<  c #3A1212",
"1  c #3C1515",
"2  c #341818",
"3  c #202323",
"4  c #232626",
"5  c #272727",
"6  c #2F2F2F",
"7  c #2E3131",
"8  c gray20",
"9  c #333535",
"0  c #343434",
"q  c #373838",
"w  c #383939",
"e  c #393B3B",
"r  c #3A3C3C",
"t  c #451515",
"y  c #471515",
"u  c #491616",
"i  c #401A1A",
"p  c #431B1B",
"a  c #4E1B1B",
"s  c #4F1B1B",
"d  c #4D1E1E",
"f  c #561313",
"g  c #501414",
"h  c #521C1C",
"j  c #601D1D",
"k  c #781F1F",
"l  c #452424",
"z  c #472626",
"x  c #5E2323",
"c  c #502E2E",
"v  c #4C3B3B",
"b  c #533232",
"n  c #593F3F",
"m  c #682D2D",
"M  c #772222",
"N  c #782C2C",
"B  c #414242",
"V  c #414343",
"C  c #434343",
"Z  c #424545",
"A  c #444646",
"S  c #454646",
"D  c #4F4E4E",
"F  c #5C4040",
"G  c #4E5050",
"H  c #4F5151",
"J  c #505252",
"K  c #515353",
"L  c #545656",
"P  c #585B5B",
"I  c #5B5D5D",
"U  c #5C5F5F",
"Y  c #6D4747",
"T  c #654949",
"R  c #6A4949",
"E  c #714242",
"W  c #784848",
"Q  c #6F5353",
"!  c #745656",
"~  c #7A5555",
"^  c #7F5A5A",
"/  c #7E5B5B",
"(  c #7A5D5D",
")  c gray38",
"_  c gray40",
"`  c #666767",
"'  c #6E6060",
"]  c #686767",
"[  c #6B6C6C",
"{  c #6D6E6E",
"}  c #716363",
"|  c #766363",
" . c #776464",
".. c gray47",
"X. c #891F1F",
"o. c #902121",
"O. c #9F2626",
"+. c #9F2A2A",
"@. c #8C3C3C",
"#. c #9A3030",
"$. c #A02D2D",
"%. c #A12E2E",
"&. c #B72F2F",
"*. c #B82F2F",
"=. c #BA2E2E",
"-. c #BD2F2F",
";. c #A73535",
":. c #AC3535",
">. c #AF3737",
",. c #A03838",
"<. c #B43030",
"1. c #B33A3A",
"2. c #B33B3B",
"3. c #B43A3A",
"4. c #B63B3B",
"5. c #B93A3A",
"6. c #C33030",
"7. c #C93131",
"8. c #C23D3D",
"9. c #CA3838",
"0. c #CC3B3B",
"q. c #D23232",
"w. c #D33232",
"e. c #D33333",
"r. c #D43333",
"t. c #D43535",
"y. c #D73434",
"u. c #DA3636",
"i. c #DB3737",
"p. c #D53B3B",
"a. c #E93737",
"s. c #E03C3C",
"d. c #E13F3F",
"f. c #E83838",
"g. c #E93838",
"h. c #E83939",
"j. c #EA3838",
"k. c #EC3838",
"l. c #EE3E3E",
"z. c #B94646",
"x. c #CB4545",
"c. c #C94F4F",
"v. c #DA4E4E",
"b. c #E44E4E",
"n. c #E94A4A",
"m. c #F34242",
"M. c #F64343",
"N. c #FE4141",
"B. c #FF4141",
"V. c #FF4242",
"C. c #FB4646",
"Z. c #FE4545",
"A. c #FF4646",
"S. c #F94949",
"D. c #FF4848",
"F. c #FF4949",
"G. c #FF4A4A",
"H. c #FF4F4F",
"J. c #FF5252",
"K. c #FF5353",
"L. c #FC5757",
"P. c #F95959",
"I. c #FF5959",
"U. c None",
/* pixels */
"U.U.U.U.U.5 w Z G r ; U.U.U.U.U.",
"U.U.U.U.A ) } ! ( ' V w U.U.U.U.",
"U.U.0 ` Q ,.e.a.a.t.#.T I 7 U.U.",
"U.U.J E 7.h.s.p.9.<.O.-.W [ U.U.",
"U.o 2 q.l.0.8.1.3.5.j *.y.n = U.",
"o o X.V.G.K.b.s s x.1.M V.X.o o ",
"o & q.A.H.L.N o o x d t m.w.& o ",
"3 l a.A.K.v.i m @ % + u A.a.l 3 ",
"7 b a.A.K.P.c.@.@ o o < s.a.c 0 ",
"o * w.A.H.I.z.i o o o o k q.& o ",
"o o o.V.S.3.h 1 + o o o : f o o ",
"U.o , *.$.$.:.n.:.y O o > v ; U.",
"U.U.A Y 6.V.A.G.G.m.*.g n ..U.U.",
"U.U.8 { ^ ;.u.k.k.u.$.R ` V U.U.",
"U.U.U.U.L ]  .~ ^ | D V U.U.U.U.",
"U.U.U.U.U.0 J P I J w U.U.U.U.U."
};
