/* XPM */
static char *_7e1673a908b40ebe1fd628c3c4c38a2[] = {
/* columns rows colors chars-per-pixel */
"64 64 170 2 ",
"   c #000000",
".  c #0B0303",
"X  c #070909",
"o  c #0B0B0B",
"O  c #130505",
"+  c #1C0707",
"@  c #160909",
"#  c #1D0909",
"$  c #0F1010",
"%  c #131313",
"&  c #191717",
"*  c #161818",
"=  c #1B1B1B",
"-  c #220707",
";  c #290707",
":  c #230B0B",
">  c #2B0B0B",
",  c #320D0D",
"<  c #3B0D0D",
"1  c #2B1111",
"2  c #351111",
"3  c #3C1313",
"4  c #1F2121",
"5  c #242424",
"6  c #262929",
"7  c #2B2B2B",
"8  c #2F3131",
"9  c #333333",
"0  c #3B3B3B",
"q  c #420E0E",
"w  c #4C0F0F",
"e  c #431313",
"r  c #4B1212",
"t  c #461C1C",
"y  c #4B1B1B",
"u  c #551313",
"i  c #5A1515",
"p  c #541C1C",
"a  c #5E1E1E",
"s  c #691616",
"d  c #601C1C",
"f  c #6B1919",
"g  c #731A1A",
"h  c #7A1D1D",
"j  c #4D2222",
"k  c #552323",
"l  c #5F2222",
"z  c #652424",
"x  c #6C2323",
"c  c #6A2929",
"v  c #702020",
"b  c #7D2323",
"n  c #732C2C",
"m  c #7B2C2C",
"M  c #683030",
"N  c #743232",
"B  c #7E3030",
"V  c #3E4141",
"C  c #434343",
"Z  c #4C4D4D",
"A  c #535353",
"S  c #575959",
"D  c #5B5B5B",
"F  c #636363",
"G  c #676868",
"H  c #6C6C6C",
"J  c #747474",
"K  c #7C7C7C",
"L  c #831D1D",
"P  c #8A1F1F",
"I  c #822323",
"U  c #8E2424",
"Y  c #842A2A",
"T  c #8D2A2A",
"R  c #922222",
"E  c #9B2424",
"W  c #952E2E",
"Q  c #9C2D2D",
"!  c #803030",
"~  c #8F3434",
"^  c #8D3A3A",
"/  c #943333",
"(  c #9E3535",
")  c #933838",
"_  c #9B3A3A",
"`  c #A22424",
"'  c #AA2626",
"]  c #A22E2E",
"[  c #B42A2A",
"{  c #BD2C2C",
"}  c #A43030",
"|  c #AC3232",
" . c #A33C3C",
".. c #B43232",
"X. c #BC3535",
"o. c #B63C3C",
"O. c #BB3B3B",
"+. c #C32C2C",
"@. c #C92D2D",
"#. c #D12F2F",
"$. c #C43535",
"%. c #CB3434",
"&. c #C43D3D",
"*. c #CB3D3D",
"=. c #D53131",
"-. c #DB3333",
";. c #D43B3B",
":. c #DC3C3C",
">. c #E33333",
",. c #EB3535",
"<. c #E43E3E",
"1. c #EB3D3D",
"2. c #F23737",
"3. c #F43A3A",
"4. c #FF3C3C",
"5. c #A14545",
"6. c #AB4444",
"7. c #A14A4A",
"8. c #AF4A4A",
"9. c #B54646",
"0. c #B74C4C",
"q. c #BF4F4F",
"w. c #BA5555",
"e. c #C44646",
"r. c #CD4242",
"t. c #C24949",
"y. c #CB4A4A",
"u. c #D54242",
"i. c #DB4343",
"p. c #D34D4D",
"a. c #DC4A4A",
"s. c #C55252",
"d. c #D45454",
"f. c #E24444",
"g. c #EB4343",
"h. c #E44C4C",
"j. c #EC4B4B",
"k. c #F34444",
"l. c #FF4343",
"z. c #F34F4F",
"x. c #FF4B4B",
"c. c #EC5252",
"v. c #EE5959",
"b. c #F35353",
"n. c #FF5353",
"m. c #F35C5C",
"M. c #FF5B5B",
"N. c #E76464",
"B. c #EE6565",
"V. c #FF6363",
"C. c #F46868",
"Z. c #FE6C6C",
"A. c #FF7272",
"S. c #838383",
"D. c #8C8C8C",
"F. c #939393",
"G. c #9C9C9C",
"H. c #A3A3A3",
"J. c #ABABAB",
"K. c #B4B4B4",
"L. c #BBBBBB",
"P. c #C3C3C3",
"I. c #CACACA",
"U. c #D3D3D3",
"Y. c #DADADA",
"T. c #E2E2E2",
"R. c #E9E9E9",
"E. c #F2F2F2",
"W. c #FEFEFE",
"Q. c None",
/* pixels */
"Q.Q.Q.Q.Q.Q.Q.Q.Q.Q.Q.Q.Q.Q.Q.Q.Q.Q.Q.Q.Q.Q.Q.Q.Q.Q.Q.Q.Q.Q.Q.Q.Q.Q.Q.Q.Q.Q.Q.Q.Q.Q.Q.Q.Q.Q.Q.Q.Q.Q.Q.Q.Q.Q.Q.Q.Q.Q.Q.Q.Q.Q.Q.Q.",
"Q.Q.Q.Q.Q.Q.Q.Q.Q.Q.Q.Q.Q.Q.Q.Q.Q.Q.Q.Q.Q.Q.Q.Q.Q.              X             Q.Q.Q.Q.Q.Q.Q.Q.Q.Q.Q.Q.Q.Q.Q.Q.Q.Q.Q.Q.Q.Q.Q.Q.Q.",
"Q.Q.Q.Q.Q.Q.Q.Q.Q.Q.Q.Q.Q.Q.Q.Q.Q.Q.Q.Q.Q.      X X     A K X 5 F.= F A % C X         Q.Q.Q.Q.Q.Q.Q.Q.Q.Q.Q.Q.Q.Q.Q.Q.Q.Q.Q.Q.Q.",
"Q.Q.Q.Q.Q.Q.Q.Q.Q.Q.Q.Q.Q.Q.Q.Q.Q.Q.Q.      X D J.H.7 o L.R.A $ P.F Y.K.J J.X 5 H =       Q.Q.Q.Q.Q.Q.Q.Q.Q.Q.Q.Q.Q.Q.Q.Q.Q.Q.Q.",
"Q.Q.Q.Q.Q.Q.Q.Q.Q.Q.Q.Q.Q.Q.Q.Q.Q.      A C 0 P.F D.J 9 P.J.L.$ G.P.K.P.L.D o J.E.D           Q.Q.Q.Q.Q.Q.Q.Q.Q.Q.Q.Q.Q.Q.Q.Q.Q.",
"Q.Q.Q.Q.Q.Q.Q.Q.Q.Q.Q.Q.Q.Q.Q.    o F = H J.F L.A K.L.J U.G.I.C J T.Z P.I.= S.I.L.J       % $     Q.Q.Q.Q.Q.Q.Q.Q.Q.Q.Q.Q.Q.Q.Q.",
"Q.Q.Q.Q.Q.Q.Q.Q.Q.Q.Q.Q.Q.Q.  X A 4 H.J = P.S H.K.L.D C C   6 = % 9 X A Z 9 L.G.U.K     F L.K.D     Q.Q.Q.Q.Q.Q.Q.Q.Q.Q.Q.Q.Q.Q.",
"Q.Q.Q.Q.Q.Q.Q.Q.Q.Q.Q.Q.    = 0 L.@ A I.A P.C $ 0 5   O ; q w i i w q ; O o $   G G   = I.D C L.9       Q.Q.Q.Q.Q.Q.Q.Q.Q.Q.Q.Q.",
"Q.Q.Q.Q.Q.Q.Q.Q.Q.Q.Q.    o H.H.P.5 % S.J.G   . < g ' #.,.2.3.4.4.3.2.,.#.' g < O X   = L.C X 9 7 C 9 X   Q.Q.Q.Q.Q.Q.Q.Q.Q.Q.Q.",
"Q.Q.Q.Q.Q.Q.Q.Q.Q.Q.  o 0 9 F R.P.L.S.o X - s { ,.4.4.4.4.4.4.4.4.4.4.4.4.4.4.,.{ f +   D L.H.9 G.P.L.J X   Q.Q.Q.Q.Q.Q.Q.Q.Q.Q.",
"Q.Q.Q.Q.Q.Q.Q.Q.Q.  $ F.K.I.H G.G.6 = + g =.4.4.4.4.4.4.4.4.4.4.4.4.4.4.4.4.4.4.4.4.=.g + = 9 0 P.5 5 P.5     Q.Q.Q.Q.Q.Q.Q.Q.Q.",
"Q.Q.Q.Q.Q.Q.Q.Q.    A J.$ D K.7 C . w @.4.4.4.4.4.4.l.4.4.l.l.l.l.l.l.4.l.4.4.4.4.4.4.4.@.u   & K.D D I.7 Z $   Q.Q.Q.Q.Q.Q.Q.Q.",
"Q.Q.Q.Q.Q.Q.Q.  % 9 A P.9 K G.  O P 2.4.4.4.4.4.4.4.l.l.l.l.l.l.l.l.l.l.l.l.l.4.4.4.4.4.4.2.P . V J.L.G D.L.=     Q.Q.Q.Q.Q.Q.Q.",
"Q.Q.Q.Q.Q.Q.Q.X S.K $ F.P.H.5 - ' 4.4.4.4.4.l.l.l.l.l.l.l.l.x.l.x.l.x.l.l.l.l.$.%.3.4.4.4.4.4.[ ; X = F.L.0 J J   Q.Q.Q.Q.Q.Q.Q.",
"Q.Q.Q.Q.Q.Q.  D I.P.9 X * X ; +.4.4.4.4.l.l.l.l.l.x.x.l.x.x.x.x.x.x.k.g.g.f.:.Q , e g ;.4.4.4.4.+.; % D.Z G.E.F.    Q.Q.Q.Q.Q.Q.",
"Q.Q.Q.Q.Q.    0 5 K I.0   ; +.4.4.4.l.4.k.1.<.f.;.$.O.| Q T b v a r e , > # + .       , p L 3.4.4.+.: X D.H.J.F J 6   Q.Q.Q.Q.Q.",
"Q.Q.Q.Q.Q.        X A 9 O [ 4.4.2...U v i e 2 , : # # O O O O O # # : : > , 2 , .     # r h 1.4.4.4.[ + = 6 P.P.K.5   Q.Q.Q.Q.Q.",
"Q.Q.Q.Q.                R 4.4.4.4.1.:.$.X.| } | | ..o.o.O.&.e.r.r.u.u.i.a.f.f.i.d >   , ;.g.4.l.4.4.4.P   9 T.F.&       Q.Q.Q.Q.",
"Q.Q.Q.Q.              u 2.4.4.4.l.l.l.l.x.x.x.x.x.n.x.n.n.n.n.n.n.n.n.n.x.n.n.x.i.&.:   b k.l.l.4.4.4.2.u o 0 X         Q.Q.Q.Q.",
"Q.Q.Q.              - #.4.4.4.4.l.l.l.x.x.x.x.n.n.n.n.n.n.n.n.n.n.n.n.n.n.n.n.n.x.x.x   . U l.l.4.4.4.4.#.-               Q.Q.Q.",
"Q.Q.Q.              L 4.4.4.l.l.l.x.x.x.x.x.n.x.n.n.n.b.e.y./ p t n p.n.n.n.n.n.n.n.W     # ;.l.l.l.4.4.4.L               Q.Q.Q.",
"Q.Q.              ; >.4.4.4.l.l.l.l.x.x.x.n.n.n.n.n.M.M.m @       # z ~  .9.h.n.n.n.r.2   X Q l.l.l.l.4.4.-.;               Q.Q.",
"Q.Q.              h 4.4.4.l.l.l.l.x.x.n.x.n.n.n.n.M.M.e.:               3 ! p.n.n.n.n.u.,   e g.l.l.l.4.4.4.h               Q.Q.",
"Q.Q.            O @.4.4.4.l.l.l.x.x.x.x.n.n.n.M.M.M.M.n               X l t.n.M.c.( a.n.d   . X.l.l.l.l.4.4.@.O             Q.Q.",
"Q.              r 2.4.4.l.l.l.x.x.x.x.n.n.n.M.M.M.M.t.@                 : m y.v.B   k h.d   O X.x.l.l.l.4.4.2.r               Q.",
"Q.              P 4.4.4.l.l.l.x.x.x.x.n.n.n.M.M.M.m.y                     2 ~ y.j 4 * p -     Q x.l.l.l.4.4.4.P               Q.",
"Q.            . { 4.4.l.l.l.l.x.x.n.n.n.n.M.M.M.V.)                       O _ v.t             d k.l.l.l.l.4.4.{ .             Q.",
"Q.            ; >.4.4.4.l.l.l.x.x.x.n.n.n.M.M.V.y.:                         c m.n           X W x.x.l.l.4.4.4.>.-             Q.",
"Q.            3 2.4.4.l.l.l.x.x.x.n.n.M.n.M.M.v.y                           X !  ..         # *.x.l.l.l.4.4.4.2.<             Q.",
"Q.            u 3.4.4.l.l.l.x.x.n.x.n.n.M.M.M.B X       # j N 1               . t O         3 f.x.x.x.l.l.l.4.3.i             Q.",
"      0 C     f 4.4.4.4.l.x.x.x.x.n.n.n.n.M.M.c       j 8.N.A.7.                            3 j.x.x.l.l.l.4.4.4.f     8 Z       ",
"  X F I.I.G o g 4.4.4.l.l.x.l.x.x.n.n.n.M.M.V. .. . 1 s.Z.Z.A.w.X                           , i.x.x.x.l.l.4.4.4.g   A L.Y.J %   ",
"    G W.W.J   g 4.4.4.l.l.l.x.x.x.n.n.n.M.M.M.m.9.6.c N C.A.A.7.                            : u.x.x.x.l.l.4.4.4.g   A E.W.D.X   ",
"    0 K.K.C   f 4.4.4.l.l.x.l.x.x.n.n.M.M.M.M.M.V.Z.6.@ N B.A.M                             > i.x.x.l.l.l.l.4.4.f   6 J.K.D     ",
"Q.  $ $ o $   i 4.4.4.l.l.l.x.x.n.x.n.n.M.M.V.V.V.V.V.q.2 j 7.:                             # ;.x.x.x.l.4.4.4.4.i   o % o %   Q.",
"Q.            q 2.4.4.l.l.x.x.x.x.n.n.n.n.M.M.M.V.V.Z.Z.8.t O                                 Y Y v g.l.4.4.4.2.q             Q.",
"Q.            ; >.4.4.4.l.l.x.x.x.x.n.n.M.M.M.M.M.V.V.V.Z.B.k                                 .   O $.l.4.4.4.>.;             Q.",
"Q.            O @.4.4.4.l.l.l.x.x.n.n.n.n.M.M.M.V.V.m.d.5.6.)                                     . ..l.l.4.4.@.O             Q.",
"Q.              E 4.4.4.l.l.l.x.x.x.n.n.n.M.M.M.M.p.j #   . :                                     O ..l.4.4.4.E               Q.",
"Q.              i 3.4.4.l.l.l.l.x.x.n.x.n.n.n.M.v.t   : 1 X                                       . [ l.l.4.3.i               Q.",
"Q.Q.            ; -.4.4.4.l.l.x.x.x.x.n.n.n.n.M.)   y e.p.c                                         e E =.2.-.-             Q.Q.",
"Q.Q.              R 4.4.4.4.l.l.l.x.x.x.x.n.n.c.3 . z x t :                                             + R R               Q.Q.",
"Q.Q.              < ,.4.l.4.l.l.l.x.x.x.x.n.e.a .                                                       O E <               Q.Q.",
"Q.Q.Q.              E 4.4.4.l.l.l.x.x.x.f.x . .   y Y n x p 3 t e                                       i L               Q.Q.Q.",
"Q.Q.Q.              , >.4.4.4.l.l.l.k.} ,   t Y X z z.n.b.b.h.h.a.l                                   - ` ,               Q.Q.Q.",
"Q.Q.Q.                h 4.4.4.4.<.] e O 3 I :.*.@ > f.n.n.n.n.n.n.c./ 1                             . L f o 0 X           Q.Q.Q.",
"Q.Q.Q.Q.              O ' 4.%.I ,   O b i.k.x.i.- p g.n.n.x.n.n.n.n.n.i.T 2 .                       i R O = L.F.*       Q.Q.Q.Q.",
"Q.Q.Q.Q.            C Z ; ' <     u ..1.l.l.x.k.T &.x.x.n.x.x.n.x.x.x.x.x.f.} r O                 q ` > = 9 D I.P.0     Q.Q.Q.Q.",
"Q.Q.Q.Q.Q.          Z U.0 < ' ` ` -.4.4.l.l.l.x.l.x.x.x.x.x.x.x.x.x.x.x.x.x.x.k.X.f #           < ` q   D.E.L.K.U.J   Q.Q.Q.Q.Q.",
"Q.Q.Q.Q.Q.Q.      0 L.K.F.$ w >.4.4.4.l.l.l.l.l.x.l.x.l.l.x.x.x.x.x.x.x.x.l.x.l.l.k.%.h +     q ` q o K D H.I.A & X Q.Q.Q.Q.Q.Q.",
"Q.Q.Q.Q.Q.Q.    0 I.K $ Z A = e =.4.4.4.4.l.l.l.l.l.l.l.l.x.x.l.l.l.x.l.l.l.l.l.l.l.l.4.+.e u ` q   & S.P.Z J J.&   Q.Q.Q.Q.Q.Q.",
"Q.Q.Q.Q.Q.Q.Q.  7 A   Z P.L.L.8 ; [ 4.4.4.4.4.4.l.k.l.l.l.l.l.l.x.l.l.l.l.l.l.4.l.4.4.4.4.,.E , 5 G.L.S.S.I.C *   Q.Q.Q.Q.Q.Q.Q.",
"Q.Q.Q.Q.Q.Q.Q.Q.    . J.K X F.S.  # h ,.4.4.4.4.4.4.4.l.l.l.l.l.l.l.l.4.l.4.4.l.4.4.4.4.,.L .   G.F.A P.F F A   Q.Q.Q.Q.Q.Q.Q.Q.",
"Q.Q.Q.Q.Q.Q.Q.Q.Q.  X H.J * J.S.K D   < ` 2.4.4.4.4.4.4.4.4.4.4.4.l.l.4.4.4.4.4.4.4.2.' < & 9 5 L.Z   D.S.    Q.Q.Q.Q.Q.Q.Q.Q.Q.",
"Q.Q.Q.Q.Q.Q.Q.Q.Q.Q.  V L.P.J.G U.K S.Z @ e ` >.4.4.4.4.4.4.4.4.4.4.4.4.4.4.4.4.>.` q   8 K.P.F K P.D.P.C   Q.Q.Q.Q.Q.Q.Q.Q.Q.Q.",
"Q.Q.Q.Q.Q.Q.Q.Q.Q.Q.Q.  = 9 5 K.R.I.D.A D.=   , f ' =.2.4.4.4.4.4.4.4.4.2.=.' s ;       F.D.% o 9 F D.C   Q.Q.Q.Q.Q.Q.Q.Q.Q.Q.Q.",
"Q.Q.Q.Q.Q.Q.Q.Q.Q.Q.Q.Q.    C J.H.S.  D L.% J Z   = - < i g L P P L g u < +   9 D X     G.D.X J D.      Q.Q.Q.Q.Q.Q.Q.Q.Q.Q.Q.Q.",
"Q.Q.Q.Q.Q.Q.Q.Q.Q.Q.Q.Q.Q.  o $ H F.X J.H 5 P.F G.P.G.5   5 7 X &   5 0 $ J 4 G.E.F     0 P.L.P.0     Q.Q.Q.Q.Q.Q.Q.Q.Q.Q.Q.Q.Q.",
"Q.Q.Q.Q.Q.Q.Q.Q.Q.Q.Q.Q.Q.Q.Q.  * C % L.H S.J.D.J.Z G.G % P.I.5 H.Z S.T.A P.5 H.J.I.0     6 Z 5   Q.Q.Q.Q.Q.Q.Q.Q.Q.Q.Q.Q.Q.Q.Q.",
"Q.Q.Q.Q.Q.Q.Q.Q.Q.Q.Q.Q.Q.Q.Q.Q.      A L.L.0 H.K K L.A A I.I.9 K H.H.T.H.K.* H.P.U.K.%         Q.Q.Q.Q.Q.Q.Q.Q.Q.Q.Q.Q.Q.Q.Q.Q.",
"Q.Q.Q.Q.Q.Q.Q.Q.Q.Q.Q.Q.Q.Q.Q.Q.Q.Q.    % $   A P.J.U.Z J.P.U.H 5 I.P.K R.H.o H.S.5 Z $     Q.Q.Q.Q.Q.Q.Q.Q.Q.Q.Q.Q.Q.Q.Q.Q.Q.Q.",
"Q.Q.Q.Q.Q.Q.Q.Q.Q.Q.Q.Q.Q.Q.Q.Q.Q.Q.Q.Q.Q.    X C G 9 9 K.H H.G.o G.I.7 H.H X 9 %     Q.Q.Q.Q.Q.Q.Q.Q.Q.Q.Q.Q.Q.Q.Q.Q.Q.Q.Q.Q.Q.",
"Q.Q.Q.Q.Q.Q.Q.Q.Q.Q.Q.Q.Q.Q.Q.Q.Q.Q.Q.Q.Q.Q.Q.Q.      o &   % 9   = 7   o X     Q.Q.Q.Q.Q.Q.Q.Q.Q.Q.Q.Q.Q.Q.Q.Q.Q.Q.Q.Q.Q.Q.Q.Q.",
"Q.Q.Q.Q.Q.Q.Q.Q.Q.Q.Q.Q.Q.Q.Q.Q.Q.Q.Q.Q.Q.Q.Q.Q.Q.Q.Q.Q.                Q.Q.Q.Q.Q.Q.Q.Q.Q.Q.Q.Q.Q.Q.Q.Q.Q.Q.Q.Q.Q.Q.Q.Q.Q.Q.Q.Q."
};
